HIERARCHY
ROOT Hips
{
	OFFSET 0.000000 0.000000 0.000000
	CHANNELS 6 Xposition Yposition Zposition Xrotation Yrotation Zrotation
	JOINT LeftUpLeg_virtual
	{
		OFFSET 0.000000 0.000000 0.000000
		CHANNELS 3 Xrotation Yrotation Zrotation
		JOINT LeftUpLeg
		{
			OFFSET 13.026900 -6.336304 -1.092800
			CHANNELS 3 Xrotation Yrotation Zrotation
			JOINT LeftLeg
			{
				OFFSET 0.524474 -46.096886 9.782700
				CHANNELS 3 Xrotation Yrotation Zrotation
				JOINT LeftFoot
				{
					OFFSET -0.524474 -53.427422 -12.948200
					CHANNELS 3 Xrotation Yrotation Zrotation
					JOINT LeftToeBase
					{
						OFFSET 0.192200 -14.009700 16.364100
						CHANNELS 3 Xrotation Yrotation Zrotation
						JOINT LeftToe_End
						{
							OFFSET -1.784700 -0.561700 9.474800
							CHANNELS 3 Xrotation Yrotation Zrotation
							End Site
							{
								OFFSET 0 0 0
							}
						}
					}
				}
			}
		}
	}
	JOINT RightUpLeg_virtual
	{
		OFFSET 0.000000 0.000000 0.000000
		CHANNELS 3 Xrotation Yrotation Zrotation
		JOINT RightUpLeg
		{
			OFFSET -12.883000 -6.336304 -1.092800
			CHANNELS 3 Xrotation Yrotation Zrotation
			JOINT RightLeg
			{
				OFFSET -0.524587 -46.096825 9.782800
				CHANNELS 3 Xrotation Yrotation Zrotation
				JOINT RightFoot
				{
					OFFSET 0.524587 -53.427383 -12.948300
					CHANNELS 3 Xrotation Yrotation Zrotation
					JOINT RightToeBase
					{
						OFFSET -0.192200 -14.009700 16.364100
						CHANNELS 3 Xrotation Yrotation Zrotation
						JOINT RightToe_End
						{
							OFFSET 1.784700 -0.561700 9.474800
							CHANNELS 3 Xrotation Yrotation Zrotation
							End Site
							{
								OFFSET 0 0 0
							}
						}
					}
				}
			}
		}
	}
	JOINT Spine_virtual
	{
		OFFSET 0.000000 0.000000 0.000000
		CHANNELS 3 Xrotation Yrotation Zrotation
		JOINT Spine
		{
			OFFSET 0.072000 7.257294 -0.789700
			CHANNELS 3 Xrotation Yrotation Zrotation
			JOINT Spine1
			{
				OFFSET 0.000000 12.508769 -0.658067
				CHANNELS 3 Xrotation Yrotation Zrotation
				JOINT Spine1_split
				{
					OFFSET 0.000000 12.508769 -0.658067
					CHANNELS 3 Xrotation Yrotation Zrotation
					JOINT Spine2
					{
						OFFSET 0.000000 12.508769 -0.658067
						CHANNELS 3 Xrotation Yrotation Zrotation
						JOINT Neck_virtual
						{
							OFFSET 0.000000 0.000000 0.000000
							CHANNELS 3 Xrotation Yrotation Zrotation
							JOINT Neck
							{
								OFFSET 0.000000 14.033295 7.520400
								CHANNELS 3 Xrotation Yrotation Zrotation
								JOINT Head
								{
									OFFSET 0.000000 8.198502 5.703100
									CHANNELS 3 Xrotation Yrotation Zrotation
									JOINT HeadTop_End
									{
										OFFSET 0.000000 17.760803 13.332701
										CHANNELS 3 Xrotation Yrotation Zrotation
										End Site
										{
											OFFSET 0 0 0
										}
									}
								}
							}
						}
						JOINT LeftShoulder_virtual
						{
							OFFSET 0.000000 0.000000 0.000000
							CHANNELS 3 Xrotation Yrotation Zrotation
							JOINT LeftShoulder
							{
								OFFSET 6.292450 5.785301 -0.669000
								CHANNELS 3 Xrotation Yrotation Zrotation
								JOINT LeftShoulder_split
								{
									OFFSET 6.292450 5.785301 -0.669000
									CHANNELS 3 Xrotation Yrotation Zrotation
									JOINT LeftArm
									{
										OFFSET 13.907140 -6.093903 1.965100
										CHANNELS 3 Xrotation Yrotation Zrotation
										JOINT LeftForeArm
										{
											OFFSET 34.140198 0.000000 0.000000
											CHANNELS 3 Xrotation Yrotation Zrotation
											JOINT LeftHand
											{
												OFFSET 40.960209 0.000000 0.000000
												CHANNELS 3 Xrotation Yrotation Zrotation
												End Site
												{
													OFFSET 0 0 0
												}
											}
										}
									}
								}
							}
						}
						JOINT RightShoulder_virtual
						{
							OFFSET 0.000000 0.000000 0.000000
							CHANNELS 3 Xrotation Yrotation Zrotation
							JOINT RightShoulder
							{
								OFFSET -6.292450 5.785301 -0.669000
								CHANNELS 3 Xrotation Yrotation Zrotation
								JOINT RightShoulder_split
								{
									OFFSET -6.292450 5.785301 -0.669000
									CHANNELS 3 Xrotation Yrotation Zrotation
									JOINT RightArm
									{
										OFFSET -13.907140 -6.093903 1.965100
										CHANNELS 3 Xrotation Yrotation Zrotation
										JOINT RightForeArm
										{
											OFFSET -34.140198 0.000000 0.000000
											CHANNELS 3 Xrotation Yrotation Zrotation
											JOINT RightHand
											{
												OFFSET -40.960209 0.000000 0.000000
												CHANNELS 3 Xrotation Yrotation Zrotation
												End Site
												{
													OFFSET 0 0 0
												}
											}
										}
									}
								}
							}
						}
					}
				}
			}
		}
	}
}
MOTION
Frames: 9
Frame Time: 0.03333333
1.375346 119.697701 -8.876383 0.000000 0.000000 0.000000 -7.927211 -5.732576 9.447951 8.511204 22.251812 -8.466804 2.217697 2.241190 2.397597 -5.231262 1.155101 1.486124 5.245355 -1.785669 -1.344900 0.000000 0.000000 0.000000 -8.077401 -5.336997 9.239793 -6.956453 -8.813718 -14.565452 20.159216 8.545640 -2.739493 -5.986714 -14.356062 25.402133 -0.910478 4.222573 -14.301721 0.000000 0.000000 0.000000 -10.443183 -3.889512 8.689238 -1.083952 -2.483151 -0.336804 7.838181 3.053973 -0.797311 0.173211 -0.136484 0.104901 0.000000 0.000000 0.000000 10.691122 4.197176 -0.418875 -0.434964 -6.681979 -0.212284 -32.553699 -42.617078 -28.969472 0.000000 0.000000 0.000000 6.622424 3.073547 -1.691514 -0.881407 -32.349111 -3.949686 6.212993 5.901137 -5.401904 13.023677 6.379575 -56.590726 -2.685931 -37.347123 -11.499560 0.000000 0.000000 0.000000 6.773110 3.549761 1.296856 -5.401965 3.862270 6.979247 -4.162192 -1.715102 0.743600 8.269014 9.399840 51.068614 0.967511 14.571958 21.972661 0.000000 0.000000 0.000000 
0.922951 120.141502 -7.914888 0.000000 0.000000 0.000000 -7.968615 -4.940099 9.342287 7.480468 21.553820 -7.981549 1.888474 2.461257 2.323010 -3.178282 1.321237 1.641366 4.761911 -1.689965 -1.471504 0.000000 0.000000 0.000000 -8.198087 -4.723323 9.206640 -5.961252 -9.389924 -14.718154 18.041893 8.385816 -2.681083 -4.932776 -13.325443 27.052667 -4.570238 4.507154 -14.220693 0.000000 0.000000 0.000000 -10.573945 -3.850421 8.445816 -0.636056 -2.486732 -0.235337 8.318670 2.950869 -0.800821 0.294671 -0.057170 0.195031 0.000000 0.000000 0.000000 11.081704 4.170970 -0.405276 -1.210233 -6.641370 -0.434286 -32.307290 -42.074874 -27.741338 0.000000 0.000000 0.000000 7.190640 2.973740 -1.687409 -0.568228 -32.996237 -3.572657 7.224666 1.712954 -5.377530 17.301013 4.797010 -58.463305 -0.886389 -36.710658 -10.060513 0.000000 0.000000 0.000000 7.147025 3.490495 1.202890 -5.483132 4.656020 5.855258 -1.906268 0.414607 1.103765 9.087574 11.373786 51.389210 0.332433 17.853993 21.824900 0.000000 0.000000 0.000000 
0.457413 121.052795 -7.167566 0.000000 0.000000 0.000000 -8.042745 -4.244733 8.958252 6.385430 20.768775 -7.310357 1.504690 2.874059 2.555110 -0.446840 1.503123 1.922392 2.565341 -1.570335 -1.683092 0.000000 0.000000 0.000000 -8.208896 -4.034124 8.883347 -4.099857 -9.845181 -14.173942 14.773038 7.430537 -2.660914 -4.894952 -12.976658 26.159775 -4.417173 4.288216 -13.295467 0.000000 0.000000 0.000000 -10.522718 -3.561415 7.985069 -0.278360 -2.427350 0.131282 9.275559 2.548007 -0.993767 0.286779 -0.062384 0.186320 0.000000 0.000000 0.000000 12.019961 3.906143 -0.677905 -2.085470 -6.098032 -0.866750 -31.016490 -41.264649 -24.919882 0.000000 0.000000 0.000000 8.592462 2.687418 -1.837072 0.132364 -32.500287 -2.222964 7.236552 -1.014539 -4.513293 23.366439 2.023860 -59.010499 -0.170126 -40.875626 -6.924852 0.000000 0.000000 0.000000 8.446352 3.161766 0.722261 -5.052356 6.007733 3.749808 -0.217524 1.274758 1.175839 12.723001 15.023418 51.942919 0.471486 23.020075 19.022493 0.000000 0.000000 0.000000 
0.090564 122.028366 -6.621939 0.000000 0.000000 0.000000 -8.147996 -3.867042 8.343002 5.072732 20.285505 -6.499649 1.623860 3.258930 3.016383 2.463182 1.651769 1.961134 -0.241835 -1.395744 -1.990076 0.000000 0.000000 0.000000 -8.138554 -3.663656 8.337479 -2.916385 -9.933200 -13.316988 12.394327 6.083828 -2.661297 -4.151682 -12.859008 24.030412 -2.500614 3.850222 -11.768604 0.000000 0.000000 0.000000 -10.541004 -2.950208 7.455800 0.031975 -2.408773 0.626291 10.578868 1.874885 -1.227981 0.160571 -0.146074 0.171811 0.000000 0.000000 0.000000 13.294339 3.370125 -1.088751 -2.774214 -5.067217 -1.552508 -28.559748 -40.027484 -20.911794 0.000000 0.000000 0.000000 10.434709 2.191001 -2.031171 1.111851 -30.889360 -0.053326 6.560742 -2.298692 -4.355020 29.834328 -0.749333 -57.990499 0.374629 -49.397195 -1.509820 0.000000 0.000000 0.000000 10.364039 2.558383 0.071137 -4.240865 7.860365 1.274534 0.843200 0.610793 1.351432 17.237272 18.802558 52.710800 1.956393 29.579821 13.380652 0.000000 0.000000 0.000000 
-0.261959 122.878716 -6.221098 0.000000 0.000000 0.000000 -8.225482 -3.785340 7.667635 3.291535 20.029101 -5.590142 2.475066 3.194281 3.583206 5.531471 1.555417 1.153616 -2.593850 -1.181693 -2.247828 0.000000 0.000000 0.000000 -7.943579 -3.768594 7.626606 -3.748562 -9.209349 -12.670940 12.426487 5.331119 -2.635809 -1.518201 -12.042346 22.980103 -3.444517 3.669767 -9.935525 0.000000 0.000000 0.000000 -10.560235 -1.911055 6.971583 0.400410 -2.596290 1.057449 12.014269 1.015892 -1.416221 -0.084463 -0.189538 0.081618 0.000000 0.000000 0.000000 14.685352 2.611110 -1.458682 -3.048275 -3.626632 -2.505729 -25.164843 -38.393945 -16.303745 0.000000 0.000000 0.000000 12.330786 1.517112 -2.183074 2.105010 -28.754977 2.171155 5.534321 -3.323443 -4.867928 36.185055 -2.759578 -55.756986 3.404918 -60.223649 7.822455 0.000000 0.000000 0.000000 12.449452 1.739767 -0.494280 -3.117526 10.381864 -0.699407 1.222273 -0.732142 1.537286 20.697673 22.025485 53.538971 5.546811 37.007464 4.650526 0.000000 0.000000 0.000000 
-0.616535 123.656143 -6.204653 0.000000 0.000000 0.000000 -8.229913 -3.945467 6.982449 1.173182 19.759203 -4.775583 3.858541 2.717508 4.121855 8.388307 1.171744 -0.300560 -4.247284 -0.990124 -2.284857 0.000000 0.000000 0.000000 -7.605904 -3.926986 6.904039 -6.654938 -7.280717 -12.203555 15.367188 5.632406 -2.789969 2.067019 -10.290631 23.042722 -8.028128 3.650909 -7.994391 0.000000 0.000000 0.000000 -10.431939 -0.697242 6.457410 0.940022 -3.086712 1.284402 13.346814 0.100569 -1.492437 -0.251621 -0.237852 -0.031340 0.000000 0.000000 0.000000 15.845335 1.795533 -1.635379 -2.807445 -1.985180 -3.685500 -20.986574 -36.639505 -11.604118 0.000000 0.000000 0.000000 14.024526 0.765059 -2.182482 2.923867 -26.741741 3.714945 4.252756 -4.490822 -6.460187 42.016677 -3.875446 -52.549474 13.946599 -69.904602 24.934239 0.000000 0.000000 0.000000 14.244424 0.873473 -0.798992 -1.838661 13.567318 -1.500977 1.416150 -1.834500 1.705930 21.292357 23.676214 54.652472 12.183684 44.524801 -7.573085 0.000000 0.000000 0.000000 
-0.996587 124.410286 -6.739153 0.000000 0.000000 0.000000 -8.093580 -4.152417 6.358568 -1.068664 19.314587 -4.048347 5.146081 1.935678 4.578496 10.493441 0.618575 -1.901332 -5.596083 -0.888663 -1.807224 0.000000 0.000000 0.000000 -7.099143 -3.875896 6.192521 -10.806892 -4.351049 -11.533846 20.990534 6.405415 -3.155573 4.458709 -8.475102 22.123406 -11.897222 3.372773 -5.969637 0.000000 0.000000 0.000000 -9.866361 0.519955 5.726213 1.665228 -3.830207 1.283250 14.496108 -0.722336 -1.453155 -0.222833 -0.198460 -0.027893 0.000000 0.000000 0.000000 16.591786 1.078704 -1.574164 -1.899603 -0.405654 -4.851530 -16.456849 -34.775519 -7.231192 0.000000 0.000000 0.000000 15.344519 0.050372 -2.038786 3.366330 -25.239335 4.047691 3.766617 -5.978921 -8.334164 45.869676 -4.893824 -48.373531 36.385114 -75.145031 53.239812 0.000000 0.000000 0.000000 15.508798 0.102951 -0.839012 -0.701996 17.050164 -1.059333 2.487436 -1.772995 1.851013 18.773717 23.203744 55.805490 22.905779 51.329514 -23.635079 0.000000 0.000000 0.000000 
-1.515447 125.095306 -7.630255 0.000000 0.000000 0.000000 -7.747203 -4.128097 5.840876 -2.938890 18.512097 -3.579998 5.703314 1.330219 4.864962 11.283015 0.231524 -2.883801 -5.618728 -0.880525 -1.184190 0.000000 0.000000 0.000000 -6.548229 -3.297635 5.609790 -15.636185 -1.172413 -10.424310 28.229604 6.787681 -3.581928 4.552435 -7.596585 18.892013 -12.279987 2.852700 -3.925175 0.000000 0.000000 0.000000 -8.599050 1.706066 4.728097 2.403502 -4.657832 1.110023 15.267134 -1.311285 -1.405807 -0.056139 -0.109281 -0.012705 0.000000 0.000000 0.000000 16.911653 0.620589 -1.401482 -0.368907 0.858751 -5.773065 -11.856803 -33.373336 -3.375666 0.000000 0.000000 0.000000 16.338330 -0.451567 -1.823176 3.257015 -24.326313 2.912057 3.773426 -6.388144 -9.304401 46.742618 -5.823701 -42.633143 56.772003 -75.228305 78.259385 0.000000 0.000000 0.000000 16.096270 -0.420124 -0.779701 0.201015 20.277519 0.291861 4.357944 -1.206897 1.562026 14.359578 21.126316 55.949201 38.260650 56.442293 -43.591811 0.000000 0.000000 0.000000 
-2.098217 125.446945 -8.688829 0.000000 0.000000 0.000000 -7.222301 -3.595986 5.363777 -4.656570 17.336830 -3.203493 5.754823 1.152387 4.889995 11.132085 0.154618 -3.274684 -4.098682 -0.885459 -0.834455 0.000000 0.000000 0.000000 -6.178475 -2.348333 5.203231 -20.511934 1.336672 -8.967973 35.668358 6.449482 -3.896881 3.062563 -7.738138 14.314885 -11.381389 2.365106 -2.190239 0.000000 0.000000 0.000000 -6.916773 2.830598 3.627393 3.046287 -5.317582 0.793163 15.631839 -1.542856 -1.439575 0.160370 -0.100491 0.024926 0.000000 0.000000 0.000000 16.966893 0.539602 -1.247602 1.851840 1.580030 -6.129454 -7.057702 -32.997583 -0.017067 0.000000 0.000000 0.000000 17.082749 -0.608889 -1.630399 2.736995 -23.789602 0.960896 4.475952 -5.488218 -9.022327 44.656952 -6.431110 -35.572202 65.255190 -74.081830 89.679154 0.000000 0.000000 0.000000 16.080579 -0.638820 -0.796158 0.912536 22.622234 2.100665 6.333138 -0.691728 0.656790 9.240268 17.778690 54.851125 56.801854 59.222576 -65.465669 0.000000 0.000000 0.000000 
